<?xml version="1.0" standalone="no"?>
<!DOCTYPE svg PUBLIC "-//W3C//DTD SVG 20010904//EN"
 "http://www.w3.org/TR/2001/REC-SVG-20010904/DTD/svg10.dtd">
<svg version="1.0" xmlns="http://www.w3.org/2000/svg"
 width="263.000000pt" height="263.000000pt" viewBox="0 0 263.000000 263.000000"
 preserveAspectRatio="xMidYMid meet">
<metadata>
Created by potrace 1.14, written by Peter Selinger 2001-2017
</metadata>
<g transform="translate(0.000000,263.000000) scale(0.100000,-0.100000)"
fill="#000000" stroke="none">
<path d="M1215 2279 c-419 -57 -740 -369 -821 -796 -23 -123 -16 -345 15 -463
92 -351 363 -618 719 -707 50 -13 111 -17 242 -17 193 -1 262 11 377 65 60 29
161 115 196 169 15 24 16 20 16 -87 l1 -113 215 0 215 0 0 955 0 955 -217 -2
-218 -3 -3 -102 -3 -103 -69 69 c-80 80 -171 130 -294 161 -94 24 -271 33
-371 19z m377 -486 c153 -76 268 -224 303 -388 39 -187 -8 -354 -139 -492
-139 -147 -304 -200 -499 -158 -190 40 -360 209 -408 405 -20 85 -16 222 9
305 49 161 176 292 341 352 58 21 80 23 187 21 119 -3 121 -3 206 -45z"/>
</g>
</svg>
